<svg height="512pt" viewBox="0 0 512 512" width="512pt" xmlns="http://www.w3.org/2000/svg"><path d="m296.167969 401.636719h-241c-30.417969 0-55.167969 24.746093-55.167969 55.164062 0 30.421875 24.75 55.167969 55.167969 55.167969h241c30.417969 0 55.164062-24.746094 55.164062-55.167969 0-30.417969-24.746093-55.164062-55.164062-55.164062zm0 0"/><path d="m134.003906 242.632812c9.746094 9.746094 16.589844 21.609376 20.152344 34.546876l29.828125-29.828126c-1.546875-6.210937-2.820313-12.519531-3.796875-18.914062-3.195312-20.910156-3.171875-42.109375.070312-63.011719 2.148438-13.855469 5.683594-27.378906 10.546876-40.417969l-9.644532-9.648437c-3.597656-3.59375-6.8125-7.46875-9.664062-11.546875l-120.976563 120.972656c8.820313-3.359375 18.265625-5.140625 27.988281-5.140625 20.964844 0 40.671876 8.164063 55.496094 22.988281zm0 0"/><path d="m78.507812 346.617188c26.734376 0 48.484376-21.753907 48.484376-48.484376 0-12.953124-5.046876-25.128906-14.199219-34.285156-9.160157-9.15625-21.335938-14.199218-34.285157-14.199218-12.953124 0-25.128906 5.042968-34.285156 14.199218-9.160156 9.15625-14.203125 21.332032-14.199218 34.28125-.003907 12.953125 5.039062 25.128906 14.199218 34.289063 9.15625 9.15625 21.332032 14.199219 34.285156 14.199219zm0 0"/><path d="m512 83.539062c0-3.976562-1.578125-7.792968-4.394531-10.605468-33.175781-33.179688-77.292969-51.449219-124.214844-51.449219-27.890625 0-54.785156 6.457031-78.984375 18.660156l-24.019531-24.015625c-10.753907-10.75-24.878907-16.128906-39.007813-16.128906-14.125 0-28.253906 5.378906-39.007812 16.128906-10.417969 10.421875-16.15625 24.273438-16.15625 39.011719 0 14.734375 5.738281 28.585937 16.15625 39.007813l24.078125 24.074218c-33.046875 65.835938-22.144531 148.269532 32.726562 203.140625 2.929688 2.929688 6.769531 4.394531 10.605469 4.394531 3.839844 0 7.679688-1.464843 10.609375-4.394531l47.027344-47.027343c16.171875 11.78125 35.582031 18.144531 55.972656 18.144531h.003906c25.460938 0 49.398438-9.914063 67.40625-27.921875 18.007813-18.007813 27.925781-41.945313 27.925781-67.414063 0-20.390625-6.363281-39.800781-18.144531-55.972656l47.023438-47.023437c2.816406-2.8125 4.394531-6.628907 4.394531-10.609376zm-82.414062 159.808594c-12.339844 12.339844-28.746094 19.136719-46.191407 19.132813-12.335937 0-24.152343-3.394531-34.375-9.746094l89.960938-89.960937c6.347656 10.222656 9.746093 22.039062 9.746093 34.371093 0 17.453125-6.796874 33.859375-19.140624 46.203125zm0 0"/><path d="m105.980469 371.636719h100.726562l-52.574219-52.574219c-6.71875 24.253906-24.816406 43.8125-48.152343 52.574219zm0 0"/></svg>