<svg height="682pt" viewBox="-21 -21 682 682.66669" width="682pt" xmlns="http://www.w3.org/2000/svg"><path d="m380.582031 365.859375c-4.007812 13.140625-11.203125 25.179687-21.1875 35.171875-16.039062 16.039062-37.367187 24.871094-60.046875 24.871094-22.683594 0-44.011718-8.832032-60.046875-24.871094-16.039062-16.035156-24.871093-37.363281-24.871093-60.046875s8.832031-44.007813 24.871093-60.046875c9.992188-9.992188 22.03125-17.179688 35.171875-21.1875l59.644532-59.636719c-17.207032-5.875-34.90625-8.558593-52.378907-7.816406-30.039062 1.257813-56.445312 12.453125-76.355469 32.371094-11.066406 11.058593-19.480468 24.222656-25.015624 39.128906-8.667969 23.332031-30.132813 39.71875-54.683594 41.746094-33.753906 2.78125-63.515625 16.175781-86.0625 38.722656-29.253906 29.253906-42.910156 70.269531-38.464844 115.5 4.3125 43.847656 25.285156 86.585937 59.054688 120.355469 33.765624 33.769531 76.507812 54.742187 120.355468 59.054687 5.605469.550781 11.136719.824219 16.601563.824219 38.609375 0 73.273437-13.664062 98.898437-39.289062 22.546875-22.546876 35.941406-52.308594 38.722656-86.0625 2.03125-24.550782 18.414063-46.015626 41.738282-54.683594 14.914062-5.535156 28.078125-13.949219 39.136718-25.007813 19.917969-19.917969 31.113282-46.324219 32.375-76.363281.734376-17.46875-1.945312-35.164062-7.820312-52.378906zm-150.429687 157.769531-26.519532 26.519532-113.445312-113.453126 26.511719-26.515624zm0 0"/><path d="m332.875 374.515625c18.523438-18.519531 18.523438-48.542969 0-67.0625-9.257812-9.257813-21.390625-13.890625-33.527344-13.890625-12.136718 0-24.269531 4.632812-33.53125 13.890625-18.515625 18.519531-18.515625 48.542969 0 67.0625 9.257813 9.257813 21.394532 13.886719 33.53125 13.886719 12.136719 0 24.269532-4.628906 33.527344-13.886719zm0 0"/><path d="m574.277344 119.125 66.054687-66.054688-53.074219-53.070312-66.054687 66.054688-39.804687-39.804688-26.515626 26.515625 39.804688 39.804687-26.558594 26.554688-39.804687-39.804688-26.515625 26.515626 39.808594 39.808593-114.925782 114.921875c12.175782 4.125 23.34375 11.011719 32.703125 20.371094 9.355469 9.359375 16.242188 20.523438 20.371094 32.703125l114.921875-114.925781 39.804688 39.804687 26.519531-26.511719-39.804688-39.804687 26.558594-26.558594 39.804687 39.804688 26.511719-26.511719zm0 0"/></svg>