<?xml version="1.0" encoding="iso-8859-1"?>
<!-- Generator: Adobe Illustrator 18.0.0, SVG Export Plug-In . SVG Version: 6.00 Build 0)  -->
<!DOCTYPE svg PUBLIC "-//W3C//DTD SVG 1.1//EN" "http://www.w3.org/Graphics/SVG/1.1/DTD/svg11.dtd">
<svg version="1.1" id="Capa_1" xmlns="http://www.w3.org/2000/svg" xmlns:xlink="http://www.w3.org/1999/xlink" x="0px" y="0px"
	 viewBox="0 0 297 297" style="enable-background:new 0 0 297 297;" xml:space="preserve">
<g>
	<path d="M69.644,129.307c-11.776,0-17.21-3.689-24.089-8.363c-7.777-5.279-17.455-11.854-35.447-11.854
		C4.525,109.09,0,113.617,0,119.197c0,5.584,4.525,10.109,10.107,10.109c11.776,0,17.211,3.689,24.089,8.361
		c7.777,5.283,17.455,11.855,35.447,11.855c5.581,0,10.107-4.527,10.107-10.109C79.751,133.832,75.225,129.307,69.644,129.307z"/>
	<path d="M69.644,99.537c-11.776,0-17.21-3.689-24.089-8.361C37.777,85.895,28.1,79.322,10.107,79.322
		C4.525,79.322,0,83.848,0,89.43c0,5.58,4.525,10.107,10.107,10.107c11.776,0,17.211,3.691,24.089,8.363
		c7.777,5.281,17.455,11.854,35.447,11.854c5.581,0,10.107-4.527,10.107-10.107C79.751,104.064,75.225,99.537,69.644,99.537z"/>
	<path d="M69.644,69.77c-11.776,0-17.21-3.689-24.089-8.363C37.777,56.127,28.1,49.553,10.107,49.553C4.525,49.553,0,54.08,0,59.66
		C0,65.244,4.525,69.77,10.107,69.77c11.776,0,17.211,3.689,24.089,8.361c7.777,5.283,17.455,11.854,35.447,11.854
		c5.581,0,10.107-4.525,10.107-10.107C79.751,74.295,75.225,69.77,69.644,69.77z"/>
	<path d="M89.305,69.449v70.307c0,4.771,3.336,8.893,8.002,9.887c1.36,0.29,13.287,2.823,29.687,6.144
		c1.578,0.32,3.216-0.087,4.462-1.107c1.246-1.02,1.967-2.546,1.967-4.156V58.682c0-1.609-0.723-3.132-1.968-4.152
		c-1.245-1.019-2.884-1.43-4.461-1.111c-16.399,3.319-28.327,5.853-29.687,6.142C92.641,60.557,89.305,64.678,89.305,69.449z"/>
	<path d="M232.742,35.707c-1.773,0-3.57,0.08-5.347,0.24c-15.164,1.367-43.211,6.326-69.403,11.352
		c-2.523,0.484-4.353,2.692-4.353,5.261v104.077c0,2.57,1.823,4.783,4.346,5.267c4.957,0.951,9.98,1.9,14.97,2.823
		c1.674,0.309,3.102,1.395,3.847,2.925c0.746,1.53,0.721,3.324-0.067,4.833l-38.657,74.022c-1.637,3.131-1.517,6.893,0.314,9.916
		c1.833,3.023,5.111,4.869,8.645,4.869h58.748c3.765,0,7.216-2.09,8.958-5.428l47.507-90.359
		C282.702,153.824,297,130.629,297,104.604C297,67.258,267.574,35.707,232.742,35.707z"/>
</g>
<g>
</g>
<g>
</g>
<g>
</g>
<g>
</g>
<g>
</g>
<g>
</g>
<g>
</g>
<g>
</g>
<g>
</g>
<g>
</g>
<g>
</g>
<g>
</g>
<g>
</g>
<g>
</g>
<g>
</g>
</svg>
