<svg xmlns="http://www.w3.org/2000/svg" height="512pt" version="1.1" viewBox="0 -46 512 512" width="512pt">
<g id="surface1">
<path d="M 45 420 L 105 420 C 129.8125 420 150 399.8125 150 375 L 150 317.921875 C 162.582031 325.449219 178.074219 330 195 330 C 235.386719 330 270 288.765625 270 255 C 270 248.105469 268.347656 242.570312 266.035156 237.625 C 282.417969 233.40625 296.789062 223.65625 307.128906 210 L 46.492188 210 C 47.386719 222.726562 43.242188 235.546875 33.808594 244.980469 C 12.011719 266.777344 0 295.765625 0 326.601562 L 0 375 C 0 399.8125 20.1875 420 45 420 Z M 195 240 C 240 240 240 250.519531 240 255 C 240 272.359375 219.402344 300 195 300 C 173.652344 300 155.085938 289.207031 151.132812 275.25 C 155.605469 255.121094 173.542969 240 195 240 Z M 75 330 C 83.285156 330 90 336.714844 90 345 C 90 353.285156 83.285156 360 75 360 C 66.714844 360 60 353.285156 60 345 C 60 336.714844 66.714844 330 75 330 Z M 75 330 " style=" stroke:none;fill-rule:nonzero;fill:rgb(0%,0%,0%);fill-opacity:1;" />
<path d="M 497 30 L 482 30 L 482 15 C 482 6.710938 475.289062 0 467 0 C 458.710938 0 452 6.710938 452 15 L 452 30 L 330 30 L 330 90 L 497 90 C 505.285156 90 512 83.285156 512 75 L 512 45 C 512 36.714844 505.285156 30 497 30 Z M 497 30 " style=" stroke:none;fill-rule:nonzero;fill:rgb(0%,0%,0%);fill-opacity:1;" />
<path d="M 180 30 L 300 30 L 300 90 L 180 90 Z M 180 30 " style=" stroke:none;fill-rule:nonzero;fill:rgb(0%,0%,0%);fill-opacity:1;" />
<path d="M 180 120 L 300 120 L 300 180 L 180 180 Z M 180 120 " style=" stroke:none;fill-rule:nonzero;fill:rgb(0%,0%,0%);fill-opacity:1;" />
<path d="M 150 178.488281 L 150 31.511719 C 115.765625 38.464844 90 68.714844 90 105 C 90 141.28125 115.765625 171.535156 150 178.488281 Z M 150 178.488281 " style=" stroke:none;fill-rule:nonzero;fill:rgb(0%,0%,0%);fill-opacity:1;" />
<path d="M 330 120 L 330 180 L 376 180 C 381.683594 180 386.867188 176.792969 389.417969 171.710938 L 415.273438 120 Z M 330 120 " style=" stroke:none;fill-rule:nonzero;fill:rgb(0%,0%,0%);fill-opacity:1;" />
<path d="M 15 180 L 92.085938 180 C 72.316406 160.722656 60 134.074219 60 105 C 60 99.902344 60.605469 94.933594 61.324219 90 L 45 90 C 36.722656 90 30 83.277344 30 75 C 30 66.710938 23.289062 60 15 60 C 6.710938 60 0 66.710938 0 75 C 0 89.648438 7.140625 102.554688 18.011719 110.777344 L 4.394531 124.394531 C 1.582031 127.207031 0 131.015625 0 135 L 0 165 C 0 173.289062 6.710938 180 15 180 Z M 15 180 " style=" stroke:none;fill-rule:nonzero;fill:rgb(0%,0%,0%);fill-opacity:1;" />
</g>
</svg>