<svg height="512pt" viewBox="-76 0 512 512" width="512pt" xmlns="http://www.w3.org/2000/svg"><path d="m225 0h-90l-60 30h210zm0 0"/><path d="m0 331c0 99.410156 80.589844 181 180 181s180-81.589844 180-181c0-78.339844-50.132812-145.800781-120-170.535156v66.230468c35.691406 20.816407 60 60.089844 60 104.304688 0 66.167969-53.832031 121-120 121s-120-54.832031-120-121c0-44.214844 24.308594-83.488281 60-104.304688v-66.230468c-69.867188 24.734375-120 92.195312-120 170.535156zm0 0"/><path d="m150 150h60v90h-60zm0 0"/><path d="m127.5 120h37.5v-60h-90zm0 0"/><path d="m285 60h-90v60h37.5zm0 0"/></svg>